<svg xmlns="http://www.w3.org/2000/svg" viewBox="0 0 438.71 208.94"><defs><style>.cls-1{fill:#010101;}.cls-2{fill:#fff;}.cls-3{fill:#666766;}.cls-4{fill:#231f20;}.cls-5{fill:#ef3b39;}.cls-6{fill:#cccccb;}.cls-7{fill:#8f8f8f;}.cls-8{fill:#999;}.cls-9{fill:#989898;}.cls-10{fill:#e2e2e0;}.cls-11{fill:none;}.cls-12{fill:#8c8c8c;}</style></defs><title>leo-illustration</title><g id="Layer_2" data-name="Layer 2"><g id="Layer_1-2" data-name="Layer 1"><polygon class="cls-1" points="386.09 49.52 379.24 49.52 378.65 74.82 382.53 75.86 386.09 49.52"/><polygon class="cls-2" points="93.29 131.67 73.9 140.59 171.65 140.59 152.26 131.67 93.29 131.67"/><rect x="205.03" y="89.16" width="8.8" height="88.03"/><rect x="59.43" y="90.91" width="0.98" height="100.08"/><path class="cls-2" d="M267,160.85,259.82,163l-10.52,6-3.15,3.6L239,177.51s-4,2.39-2.83,5.17a9.41,9.41,0,0,1-.15,2.73l-1.89,4.69v3.73s-.26,2.56.64,2.73a4.62,4.62,0,0,0,2-.19l1.74-1.67a53.85,53.85,0,0,0,1.17-5.76c.11,7.11.18,7.46.18,7.46l1.76,5L243,204a4.74,4.74,0,0,0,1.45,1.37,5.22,5.22,0,0,0,1.35.38,5.78,5.78,0,0,0,1.16-.21c.17-.42.94-2.69.94-2.69l3.58,3,3,.11,1.14-2,2,1.09,2.76-.16.21-6.72,3-3.8,9.5-6.48L270,175.1l-1.85-12.62Z"/><rect x="68.71" y="90.91" width="0.98" height="100.08"/><rect x="60.41" y="119.96" width="8.8" height="71.25"/><rect x="45.86" y="145.06" width="179.73" height="3.85"/><path d="M226.08,149.4H45.37v-4.82h180.7Zm-179.73-1H225.1v-2.87H46.35Z"/><polygon class="cls-3" points="45.86 145.06 225.59 145.06 187.76 128.84 83.69 128.84 45.86 145.06"/><path class="cls-3" d="M228,145.55H43.49l40.2-17.19H187.86Zm-179.73-1h175l-35.55-15.24H83.79Z"/><path class="cls-1" d="M176.11,141.56H69.44l23.74-10.87h59.29Zm-102.21-1h97.75l-19.39-8.92h-59Z"/><path class="cls-1" d="M180,136.81c.38.24.78.47,1.18.69a15.72,15.72,0,0,0,3.22,1.38,4,4,0,0,0,2.6-.15,1.54,1.54,0,0,0,.71-.93c.21-1-.7-2.1-1.5-2.91a12.46,12.46,0,0,0-7.93-3.63c-.46,0-.81-.57-1.16-.31-1.45,1.08.48,4,1.44,4.8A12,12,0,0,0,180,136.81Z"/><path class="cls-2" d="M180.48,136.33c.38.24.78.47,1.18.69a15.72,15.72,0,0,0,3.22,1.38,2.53,2.53,0,0,0,2.05-.1,1.59,1.59,0,0,0,.63-1,3.1,3.1,0,0,0-.87-2.87,12.46,12.46,0,0,0-7.93-3.63,2,2,0,0,0-1.3.22c-1.45,1.08.62,3.43,1.58,4.26A12,12,0,0,0,180.48,136.33Z"/><path class="cls-4" d="M185.94,138.69a4,4,0,0,1-1.1-.17,15.71,15.71,0,0,1-3.24-1.39c-.45-.24-.83-.47-1.18-.69a12.1,12.1,0,0,1-1.46-1.07c-.75-.65-2.17-2.21-2.12-3.43a1.28,1.28,0,0,1,.55-1,2.07,2.07,0,0,1,1.38-.25,12.54,12.54,0,0,1,8,3.67,3.2,3.2,0,0,1,.91,3,1.71,1.71,0,0,1-.68,1.09A1.85,1.85,0,0,1,185.94,138.69Zm-7.54-7.8a1.45,1.45,0,0,0-.87.21,1,1,0,0,0-.45.83c0,1,1.2,2.51,2,3.24a11.88,11.88,0,0,0,1.43,1c.35.22.73.44,1.17.68a15.48,15.48,0,0,0,3.19,1.37,2.34,2.34,0,0,0,2-.08,1.47,1.47,0,0,0,.58-.94,3,3,0,0,0-.84-2.76,12.3,12.3,0,0,0-7.85-3.6Z"/><rect x="2.09" y="117.46" width="267.28" height="5"/><path d="M269.85,122.95H1.6v-6H269.85ZM2.58,122h266.3v-4H2.58Z"/><polygon class="cls-3" points="2.09 117.46 269.36 117.46 213.11 89.65 58.34 89.65 2.09 117.46"/><path class="cls-3" d="M271.45,117.95H0L58.23,89.16h155l.1.05ZM4.18,117h263.1L213,90.13H58.46Z"/><path class="cls-5" d="M356.74,205.78l-15.82-6.48-57.3-14.94-7.92,1.88-11.63,8.33-3.14,3.56,0,7.39-3.77-.22-1.61-1.1-1.25,2.21-3.35-.25-3.09-3.11-.82,2.54-1.72.39-1.33-.78-1.5-1.8-1.51-3-1.47-4.18.1-3.2-.16-3.61-.8,5.48-1.68,1.7-2.56.22-.48-1.37-.34-2.81.06-2.78,2.25-4.49.17-2.57a7.12,7.12,0,0,0,1.06,1.21,6.31,6.31,0,0,1-1-1.54l-.08-2.07,1-1.44,4.51-3.29,4.11-3.36,1.6-4-6.57,2.74-11.27,12.49-7.67,18.78,7.94,2.74,8.82,3.45H355.4Z"/><path class="cls-4" d="M355.63,208.94l-117.25,0-8.82-3.45-8.3-2.87.15-.36,7.74-18.9,11.41-12.59,7.39-3.08-2,4.94L241.78,176l-4.47,3.26-.85,1.29.08,1.88a5.77,5.77,0,0,0,.89,1.37l-.5.54a5.82,5.82,0,0,1-.52-.51l-.15,1.76L234,190l-.06,2.7.33,2.76.37,1,2.14-.18,1.5-1.52.78-5.36.74,0L240,193l-.1,3.16,1.45,4.11,1.49,3,1.41,1.68,1.15.67,1.37-.31.95-2.92,3.41,3.44,3,.22,1.33-2.36,1.86,1.27,3.28.19,0-7.13.09-.11,3.14-3.56,11.82-8.44,8-1.9.09,0L341,198.94l16.23,6.64Zm-117-.74H355.17l1.07-2.23-15.46-6.33-57.17-14.9-7.76,1.84-11.56,8.29-3,3.4,0,7.64-4.27-.25-1.37-.93-1.17,2.07-3.72-.28-2.76-2.78-.7,2.17-2.07.47-1.55-.93-1.49-1.8-1.56-3.07-1.52-4.29.09-2.79-.23,1.57L237.17,197H237l-2.85.25-.58-1.64-.35-2.89.1-3,2.21-4.42.22-3.22-.07-1.76,1.11-1.64,4.51-3.29,4-3.28,1.24-3.07-5.68,2.37-11.17,12.38-7.5,18.36,7.57,2.62Z"/><path class="cls-5" d="M237.86,184.4a1.44,1.44,0,0,1-.69-.38A1,1,0,0,0,237.86,184.4Z"/><path class="cls-4" d="M237.84,184.77a1.41,1.41,0,0,1-.94-.49l.5-.55a1.15,1.15,0,0,0,.5.3l0,.74Z"/><rect class="cls-1" x="65.67" y="1.37" width="140.93" height="82.23"/><polygon class="cls-6" points="200.94 77.54 70.26 76.35 71.27 7.58 201.95 8.78 200.94 77.54"/><path class="cls-6" d="M201.43,78,69.77,76.83l1-69.74L202.45,8.3ZM70.76,75.86l129.71,1.19,1-67.79L71.75,8.08Z"/><rect class="cls-2" x="126.33" y="82.43" width="17.62" height="11.64"/><path class="cls-4" d="M144.44,94.56h-18.6V81.95h18.6Zm-17.62-1h16.65V82.92H126.81Z"/><polygon class="cls-2" points="93.29 131.67 73.9 140.59 171.65 140.59 152.26 131.67 93.29 131.67"/><path class="cls-2" d="M329.38,77s-.63-13.31-.85-14.55c-.41-2.37-1.19-3.25-.6-6.85a44.91,44.91,0,0,0-.21-6.51S327,40.24,330,33.78c3.1-8,3.68-9.59,4.27-10,2.22-1.17,4.93-2.52,4.93-2.52s2.18,1.27,3,1.19c2.14.1,8-2.29,8.45-3,4.22-1,8.88-2.88,12.12,1.12,1.09,4.09,1.89,8.68,4.23,9.66,2.6,2.55,5.85,3.39,6.46,4.8s2.46,18.34-1.17,22.65c-4.62,5.3-12,12.87-12,12.87s-5.42,8.68-10.84,8.5S329.49,79.23,329.38,77Z"/><path class="cls-1" d="M153.3,100.95H117l9.19-7.36h18Zm-33.56-1h30.78l-6.75-5.41H126.5Z"/><rect class="cls-1" x="85.92" y="138.1" width="54.92" height="0.49"/><rect class="cls-1" x="91.1" y="135.28" width="47.56" height="0.49"/><rect class="cls-1" x="98.09" y="132.97" width="36.59" height="0.49"/><rect class="cls-1" x="152.18" y="137.95" width="12.52" height="0.49"/><rect class="cls-1" x="147.57" y="135.32" width="10.84" height="0.49"/><path class="cls-2" d="M377.71,43.93l5.52-3.71c1,.29,3.61.55,4.19,3.52a12,12,0,0,1-.84,3.68,12.81,12.81,0,0,0-.3,4.86c-.25,1.8-.52,3.83-2.07,4.47-1.18.86-2.73,2-3,2.11-.47,2.34-3,14.68-2.57,16a56.3,56.3,0,0,1-7,1Z"/><rect class="cls-1" x="143.4" y="133.17" width="8.34" height="0.49"/><rect class="cls-2" x="118.03" y="99.16" width="33.88" height="1.3"/><path class="cls-4" d="M153.3,100.95H117V98.67H153.3ZM118,100h34.3v-.33H118Z"/><path class="cls-2" d="M204.53,133.6a4.11,4.11,0,0,0-2.81.66l-4,3.31-4.08,4.12-6.59,7.11L181.3,160.7l4,16.34s2.68-1,2.81-2.11c.26.67.64,1.72,2.82.39.44-.84,1.58-2.19-.61-4.86.68-1.53,1.47-3.15-.42-4-.19-.61-1.41-2.68-.39-3.49.53-.82,1.39-1.94,1.39-1.94l-.31-.32s3.89-5.36,5.36-6.21c.81-1,.62-1.49.62-1.49s1.7,2.06,3.68,2.26c-.58,1.13-2.6,7.91-.16,10.59a3.64,3.64,0,0,0,2.54.89,1.2,1.2,0,0,0,1.15-.49c.37-.61,1.74-5.74,1.74-5.74a11.91,11.91,0,0,0,1.11-4.46c.86-.48,3.54-3.46,3.71-4.32a39,39,0,0,0-.7-4.93c-.38-1.55-2.24-8.13-2.24-8.13S205.86,133.24,204.53,133.6Z"/><path class="cls-3" d="M221.38,204c-5.14-2.16,14-32,14-32s-3.69,2.86-15.69,8.49c-8.84,7.14-34.4-4.07-34.4-4.07l-46,6.92L119.49,205.7l-2.27,2.87h119.7C231.7,205.88,226,205,221.38,204Z"/><path class="cls-7" d="M343.57,56.53c1.45-.9,2.71-4.47,6.32-1.21.94,2.08-3.07,2.69-3.07,2.69"/><path d="M295.09,192.88c7.27-3.26,15.49-1.73,23.15-1.4,7.25.31,14.87,1.12,21.8,3.37l25.39,8.2-1.1-3.44a298.67,298.67,0,0,0-37.44-12.38,144,144,0,0,0-26.46-4.77c-8.42-.57-19.5-.19-24.67,7.72a18.75,18.75,0,0,0-2.56,9.16c-.13,2.1-.87,6.1-.39,9.23h11C285.39,201.94,288.65,195.77,295.09,192.88Z"/><path class="cls-7" d="M346.82,58l-6.69.37s-2.45-4.83,3.44-1.84"/><path class="cls-8" d="M235.75,169s7.06-12.49,21-14.17c8.69-8.81,11.66-14.2,11.66-14.2l.51-2.21a11.79,11.79,0,0,0,4.67-3.28c1.87-2.3,4.09-9.15,6.39-9.93,2.06-1.65,40.41-35,40.41-35l6.93-3.92s6.9,8,11.6,7c-4.64,3.19-20.57,17.32-20.57,17.32L290.79,136l-1.95.75-4.12,3.65-3.4,5.58-1.79,2.24-3,3.74s-2,2.42-1.76,2.88A10,10,0,0,0,269,152.9c-1.46.15-13.38,6.7-13.38,6.7s-9.91,4.78-10.42,6.49c-.87,1.53-1.95,2.27-2.55,2.3-1,.12-5.6,3.06-5.6,3.06Z"/><path class="cls-5" d="M248,165.37l16.06-7.45s5.59-7,10.72-3.29a4,4,0,0,1,.65-1.3c1.88-2.51,6.78-7.93,9.43-13,.62-1.17,1.61-1.37,2.31-1.93a15.66,15.66,0,0,0,1.88-1.77l27.06-13.33L361.45,95.9l-1.36-4.68,7.59.84s5.63-10,12.54-7c3,.46,13.87,4.55,13.87,4.55s14.32,10.13,20.18,11.82c3.28,4,8.27,9.47,2.12,28.43-5.91,16-20,56.11-29.14,63.17-2.24,2.71-4.91,4.93-14.74,6l-5.65,1.16-1.33,0s-45.64-15.07-49.06-15-26.39-4.62-30.44-1c-3.38-15-5.42-25.34-5.42-25.34l-.85-6.5-.76-1.65L277.55,153l-1.06,3.42-10,3.12.35,1.37-6.4,1.92-14.19,7.66Z"/><path class="cls-4" d="M366.94,200.46l-1.52-.05c-15.73-5.19-46.13-15-48.92-15h-.1c-1,0-3.13-.3-6.08-.71-7.93-1.1-21.2-2.94-24-.4l-.47.42-.14-.61c-3.34-14.85-5.4-25.25-5.43-25.35l-.85-6.47-.44-1-1.08,1.82-1.08,3.52-9.85,3.07.35,1.37-6.74,2-15,8.08,2.12-6.13.14-.07,16-7.41c.61-.71,5.82-6.61,10.76-3.56a4.69,4.69,0,0,1,.55-.95c.47-.63,1.13-1.44,1.9-2.38a69.28,69.28,0,0,0,7.5-10.53,3.88,3.88,0,0,1,1.75-1.63,5.22,5.22,0,0,0,.66-.42,15.57,15.57,0,0,0,1.83-1.73l.12-.09L316,123,361,95.73l-1.43-4.94,7.9.87c.89-1.45,6.29-9.76,12.83-7,3.07.49,13.46,4.4,13.9,4.56l.08,0c.14.1,14.33,10.12,20.06,11.76l.11,0,.29.36c3.39,4.13,8,9.78,2,28.51l-1.54,4.21c-6.71,18.37-19.19,52.56-27.72,59.14-2.18,2.66-4.85,5-14.93,6Zm-1.34-.77,1.28,0,5.56-1.15c9.83-1,12.4-3.24,14.53-5.83,8.42-6.5,20.86-40.56,27.54-58.86.56-1.53,1.07-2.94,1.54-4.2,5.94-18.33,1.45-23.8-1.84-27.8l-.15-.18C408.23,100,394.9,90.6,393.91,89.9c-.76-.29-10.92-4.08-13.76-4.51l-.09,0c-6.53-2.81-12,6.78-12.07,6.87l-.12.21-7.28-.8,1.28,4.42-.24.14-45.32,27.44L289.3,137a16.76,16.76,0,0,1-1.88,1.76,5.78,5.78,0,0,1-.76.48,3.17,3.17,0,0,0-1.46,1.33,70,70,0,0,1-7.58,10.65c-.76.93-1.41,1.73-1.88,2.36a3.54,3.54,0,0,0-.59,1.16l-.13.53-.44-.32c-4.79-3.47-10.16,3.16-10.21,3.22l-.13.1-15.91,7.38-1.4,4,13.36-7.21,6.13-1.84-.35-1.36,10.16-3.17,1-3.23,1.83-3.11,1.09,2.39.85,6.5c0,.08,2,10.21,5.29,24.77,3.8-2.26,16-.56,24.16.57,2.89.4,5.18.71,6,.7h0C320.07,184.68,363.11,198.87,365.6,199.69Z"/><path class="cls-5" d="M187.09,176.31s14.07-3.07,21.39-2.17,12.11,1.32,12.11,1.32,9.09-4.29,6.39-14.32c.59-4,3-3.17,3-3.17s9.15,10.57,8.31,11.88c-2.21,2.34-9.31,6-9.31,6s-7.19,13.11-34.74,3.84l-8.9-3.28Z"/><path class="cls-4" d="M212,183.42a56.47,56.47,0,0,1-17.89-3.37l-10.55-3.89,3.5-.23c.88-.19,14.28-3.06,21.49-2.17,6.65.81,11.26,1.24,12,1.31,1-.49,8.58-4.65,6.1-13.84l0-.07v-.08c.24-1.65.8-2.74,1.66-3.26a2.23,2.23,0,0,1,1.8-.21l.09,0,.06.07c2.81,3.24,9.24,10.93,8.34,12.32-2.16,2.28-8.46,5.62-9.36,6.09C228.65,177.09,224.4,183.42,212,183.42Zm-24.92-6.74,7.27,2.68c26.94,9.07,34.22-3.54,34.29-3.67l.05-.1.1-.05c.07,0,7.07-3.68,9.21-5.94.21-.8-4.09-6.49-8.25-11.3a1.54,1.54,0,0,0-1.09.18,3.64,3.64,0,0,0-1.28,2.65c2.68,10.15-6.52,14.62-6.61,14.67l-.09,0h-.1s-4.88-.44-12.13-1.32-21.13,2.14-21.27,2.16Z"/><path class="cls-1" d="M335.56,94.08s-16.25-2.1-7.27-28.93c1.29,5.92,2.94,9.3,6.4,9.4a43.67,43.67,0,0,1,5-1.11l1.73.05,2-5.08,1.28-2.63s.66,4.43,2.1,5.54a10.91,10.91,0,0,0,4.09,1.46L354.57,71l4-3.22,15.83-15.27.27-8.81,3.47.11-.38,12.41s1.68,16.23-6.13,19.85a118.66,118.66,0,0,0-16,6.76C352.1,84.77,335.56,94.08,335.56,94.08Z"/><path class="cls-1" d="M335.87,95.17l-.18,0c-.2,0-7.66-2.58-9.49-8-2.27-6.76-.61-10.05,1.57-22.14l.64-1.92.43,2c1.37,6.31,3,8.83,5.8,9a43.41,43.41,0,0,1,5-1.11l1.43,0,1.88-4.72L345,63.93l.27,1.77c.25,1.63,1,4.47,1.89,5.18a10,10,0,0,0,3.67,1.33l3.45-1.65,3.92-3.18,15.69-11.63-.05-12.57,5.25-.28-.79,13.37c.07.6,1.62,16.59-6.46,20.34a119,119,0,0,0-16,6.74C352.41,85.24,336.19,95,336,95.07Zm-7.65-27.94c-2.84,9.36-2.78,16.5.19,21.24a11.13,11.13,0,0,0,7.05,5c1.77-1,16.6-9.33,19.84-11.12a119.62,119.62,0,0,1,16.11-6.8c7.32-3.39,5.78-19.11,5.77-19.27l.37-11.93-2.36-.07L375,56.23l-16,12-4.12,3.32L351,73.36l-.17,0a11.34,11.34,0,0,1-4.34-1.56c-1-.79-1.65-2.79-2-4.26l-.56,1.14-2.15,5.4L339.66,74s-1.35.18-4.82,1.1l-.08,0h-.08C331,75,329.31,71.45,328.21,67.23Z"/><path class="cls-5" d="M325.18,84.27s-23.43,6.08-28.67,11.53-11.17,11.41-11.17,11.41L280,115.32l-3.8,9.63L272,132.84l-3.49,4.83-7.23,5,1.92-1.12c1.77-1,4.65-2.7,8.13-4.7.43-.25,1.46-.57,1.76-1,1.58-2.19,2.29-3.78,3.62-6a12.61,12.61,0,0,1,3.28-4.7l4.31-3.45,9.09-7.3L319.56,91l6.64-3.86Z"/><path class="cls-4" d="M261.46,143l-.4-.62,7.18-4.95,3.45-4.78,4.19-7.84,3.79-9.59L285,107c.11-.12,6-6.08,11.21-11.46s27.88-11.38,28.84-11.63l.33-.08,1.23,3.44-6.9,4-26.12,23.42-9.1,7.31-4.31,3.45A12.22,12.22,0,0,0,277,130c-.48.79-.87,1.48-1.24,2.14a37.69,37.69,0,0,1-2.41,3.88,3.49,3.49,0,0,1-1.37.85,5.13,5.13,0,0,0-.51.24c-3.48,2-6.36,3.67-8.13,4.7Zm63.49-58.26c-2.85.76-23.39,6.38-28.17,11.35-5.19,5.39-11.11,11.35-11.17,11.41l-5.28,8.06-3.77,9.56L272.32,133l-3.47,4.82,2.29-1.32c.15-.08.35-.18.58-.28a3.4,3.4,0,0,0,1.06-.61,36.49,36.49,0,0,0,2.37-3.81c.38-.67.77-1.37,1.24-2.13a12.79,12.79,0,0,1,3.37-4.8l4.31-3.45,9.09-7.3L319.32,90.7l6.43-3.75Z"/><path class="cls-5" d="M378.53,74.64s-17.65.85-47.95,24.86c-19.69,18-37.2,33.6-37.2,33.6l-2.6,2.86,4.37-1.81,20.26-10.69,15.51-9.13,12.88-8.51,18.25-10.45-1.38-3.95,7.5.23s5.87-8.33,13.64-7c-.79-3.63-1.89-10-1.89-10Z"/><path class="cls-4" d="M289.41,136.93l3.7-4.08c.2-.18,17.76-15.82,37.23-33.63,30.05-23.82,48-24.94,48.18-25l1.73.05.05.3c0,.06,1.11,6.38,1.89,10l.12.53-.54-.09a9.52,9.52,0,0,0-1.62-.14c-6.65,0-11.6,6.9-11.65,7l-.12.16-7.17-.22,1.31,3.73-.27.15L344,106.14l-12.86,8.5-15.53,9.14-20.28,10.7ZM378.54,75c-.57,0-18.25,1.42-47.72,24.77-19.45,17.8-37,33.44-37.18,33.59L292.17,135l2.85-1.17,20.23-10.68,15.5-9.13,12.87-8.51,18-10.31L360.16,91l7.85.24c.88-1.18,6.23-7.95,13.35-7.05-.67-3.18-1.52-7.95-1.73-9.17Z"/><polygon class="cls-8" points="280.04 155.41 266.49 159.51 268.65 163.12 273.06 188.09 275.54 186.43 286.48 183.72 281.11 163.7 280.04 155.41"/><path class="cls-1" d="M276.38,156.45s1.29-5.75,2.7-5.71a9.48,9.48,0,0,1,1,4.51c-.14.41-3.66,1.19-3.66,1.19"/><path class="cls-5" d="M220.68,152.21l-12.38,8.3s3.84-4.29,1.06-14.89-3.66-12.09-5.37-12.09c-3.67,0-8.61,7.07-10.34,8.16.45-14.54,16.69-11.57,16.69-11.57s12.33-3.52,19.47-1.1c4.44-1.06,10.2-2.79,12.79-2.11,2.72-.52,9.69-2.5,9.69-2.5s4-1,5.2.16l2.3.17s.67-2.08,5.45-1.23l1.82-.44s3.34-1,4.22-3.68a15.93,15.93,0,0,1,3.9-3l5.36-.47s-7.19,18.3-10.29,20.51c-2.79,2.62-6.71,9.81-18.63,9.54C244.22,145.6,223,142.8,220.68,152.21Z"/><path class="cls-4" d="M206.13,162.41l1.89-2.14s3.66-4.31,1-14.55-3.54-11.81-5-11.81h0c-2.39,0-5.46,3.32-7.7,5.73a16.94,16.94,0,0,1-2.44,2.37l-.59.37,0-.7c.13-4.09,1.49-7.22,4.07-9.29,4.79-3.86,12-2.8,13-2.64,1.17-.33,12.55-3.4,19.5-1.11l2.23-.55c4.07-1,8.27-2.09,10.55-1.55,2.73-.53,9.51-2.46,9.58-2.48.44-.11,4.08-.94,5.45.16l1.93.14c.38-.6,1.65-1.9,5.65-1.22l1.74-.42s3.15-1,4-3.43l.09-.14a16.19,16.19,0,0,1,4-3.12l.13,0,6-.53-.22.56c-.29.75-7.26,18.43-10.42,20.68-.41.39-.89.94-1.45,1.56-2.67,3-7.09,8-16.75,8.05h-.65c-.91,0-2-.12-3.28-.2-8.86-.61-25.36-1.76-27.3,6.21l0,.14-.12.08ZM204,133.16c2,0,2.86,1.48,5.71,12.36,1.91,7.31.74,11.67-.23,13.74L220.35,152c2.24-8.42,19-7.26,28-6.63,1.25.09,2.35.16,3.25.2h.65c9.3,0,13.43-4.68,16.17-7.8.57-.64,1.06-1.2,1.53-1.65,2.71-1.94,8.74-16.75,10-19.82l-4.68.42a16.06,16.06,0,0,0-3.68,2.88c-1,2.76-4.3,3.79-4.44,3.83l-1.91.47h-.08c-4.36-.76-5,1-5,1l-.1.26h-.28l-2.43-.18-.1-.09c-.74-.72-3.37-.42-4.86-.07-.27.08-7,2-9.71,2.51h-.08l-.08,0c-2-.55-6.41.56-10.26,1.53l-2.34.58-.1,0-.1,0c-6.94-2.36-19.12,1.07-19.25,1.11l-.08,0h-.09c-.08,0-7.72-1.36-12.46,2.48a10.73,10.73,0,0,0-3.74,7.91c.46-.44,1-1.06,1.68-1.75,2.33-2.51,5.53-6,8.24-6Z"/><path class="cls-1" d="M336.79,67.54a11.1,11.1,0,0,1,11.95-6.1,13.07,13.07,0,0,1,2.3.6c.73.3,1.44.64,2.12,1-.78-.13-1.51-.36-2.27-.48l-1.13-.16-.56-.09-.56,0-1.12-.05-1.11.08a6.39,6.39,0,0,0-1.1.14,6.8,6.8,0,0,0-1.08.23,12.87,12.87,0,0,0-4,1.82A17.27,17.27,0,0,0,336.79,67.54Z"/><path class="cls-1" d="M357.21,67.94a30.64,30.64,0,0,0-.82-4.92,1.77,1.77,0,0,0-.4-.77c-.09,0,.08.07-.23-.07l-.61-.26c-.8-.36-1.58-.76-2.33-1.17a14.58,14.58,0,0,0-4.25-1.81,14.45,14.45,0,0,0-2.25.26,16.09,16.09,0,0,0-2.37.46,5.35,5.35,0,0,1-.78.16,5.81,5.81,0,0,1-.78,0c-.48,0-.88-.06-1.18,0a1.39,1.39,0,0,0-.73.19,8.63,8.63,0,0,0-.94.64,22.89,22.89,0,0,0-3.37,3.49l-1.53,2a7.61,7.61,0,0,0-.86,2.16,35.32,35.32,0,0,0-.87,5,21.49,21.49,0,0,1-.12-5.16,7.69,7.69,0,0,1,.68-2.67c.46-.82.89-1.49,1.38-2.22a19.85,19.85,0,0,1,3.41-4.07,10.66,10.66,0,0,1,1.12-.86,3.5,3.5,0,0,1,1.67-.56c.55,0,1,0,1.36,0a3.66,3.66,0,0,0,.49,0,3.13,3.13,0,0,0,.46-.11A18.45,18.45,0,0,1,346,57l1.27-.17a6.09,6.09,0,0,1,1.53-.06,13.73,13.73,0,0,1,5,2.23c.72.43,1.44.85,2.16,1.23l.54.28a2.17,2.17,0,0,1,.82.63,3.38,3.38,0,0,1,.55,1.56A13.5,13.5,0,0,1,357.21,67.94Z"/><path class="cls-1" d="M329.14,42.9a4.9,4.9,0,0,1,.77-1.54,2.13,2.13,0,0,1,.34-.34l.22-.16.17-.11a6.18,6.18,0,0,1,.75-.4,10.57,10.57,0,0,1,3.24-.91,8.53,8.53,0,0,1,6.3,1.58l-.08.1a6.06,6.06,0,0,0-2.94-1.18,8.25,8.25,0,0,0-3.13.33,21.34,21.34,0,0,0-2.93,1.09l-.71.33-.32.14c-.09,0-.18.11-.29.17A8.84,8.84,0,0,1,329.14,42.9Z"/><path class="cls-1" d="M342.15,45.4c-.93,3-2,5.89-3.06,8.79h0l-.42,1.72v-.05l.55,1.27h0l.46.64-.51-.6h0l-.64-1.23v-.05l.35-1.73h0C339.88,51.18,341,48.27,342.15,45.4Z"/><path class="cls-1" d="M348.17,50.91a13.77,13.77,0,0,1,1.76.45,2.58,2.58,0,0,1,.76.54,4.67,4.67,0,0,1,.64.67,2.2,2.2,0,0,1,.43.88,1.2,1.2,0,0,1-.32,1,3.26,3.26,0,0,1-1.76.78l-.09,0-.09-.07a3.87,3.87,0,0,0-1.86-.67,3.41,3.41,0,0,0-1,0,1.44,1.44,0,0,0-.75.5,7,7,0,0,1-.78.77,4.8,4.8,0,0,1-.87.7,2.18,2.18,0,0,1-1.14.26,2,2,0,0,1-1.07-.44l0,0a8.18,8.18,0,0,0-1.46-.63.65.65,0,0,0-.68.14,1.29,1.29,0,0,0-.21.74,1.25,1.25,0,0,1,.12-.81.8.8,0,0,1,.8-.26,6.21,6.21,0,0,1,1.56.52h0a1.57,1.57,0,0,0,1.79,0,4.55,4.55,0,0,0,.77-.65,6.51,6.51,0,0,0,.73-.75,2,2,0,0,1,1-.67A3.49,3.49,0,0,1,347.7,54a4.39,4.39,0,0,1,2.1.81l-.18,0a2.85,2.85,0,0,0,1.5-.6.75.75,0,0,0,.25-.62,1.85,1.85,0,0,0-.31-.73,4.36,4.36,0,0,0-.56-.66,2.77,2.77,0,0,0-.65-.56C349.32,51.3,348.73,51.13,348.17,50.91Z"/><path class="cls-1" d="M349.59,37.55a8.86,8.86,0,0,1,3-2.44A12.48,12.48,0,0,1,356.34,34a11.92,11.92,0,0,1,3.94,0,18.79,18.79,0,0,1,1.89.51,15.86,15.86,0,0,1,1.77.83l0,.11A16.53,16.53,0,0,1,362,35.2c-.63,0-1.25-.12-1.87-.17a29,29,0,0,0-3.69-.19,11.76,11.76,0,0,0-3.61.78,8.55,8.55,0,0,0-3.14,2Z"/><path class="cls-1" d="M386.85,42.2l-.39-14s-1.28-8.46-12-17.9c-14.81-9-32.72-4.27-41.79,5.45-7.14,7.65-6,20-5.5,30.13a6.91,6.91,0,0,0,.33,1.56h.13a17.62,17.62,0,0,1,0-3.56q.33-2.46.66-4.91l2.1-6.45,1.33-4.07L333.65,25a4.14,4.14,0,0,1,1.19-1.59,25.46,25.46,0,0,1,4-2.08,1.59,1.59,0,0,1,.64-.18c.49,0,.85.42,1.24.71a3.93,3.93,0,0,0,3.28.49A14.4,14.4,0,0,0,347.13,21a21.59,21.59,0,0,1,6.94-2.39c3.24-.44,7.08.2,9,3.13.2,3.31,1,10.15,9,12.3.91,2.38,1.54,7.21,1.79,9.42l4.95-.44,3.37-2,1-.87Z"/><path class="cls-1" d="M328.53,62.41l-.91-4.25h0l.07-7v0a51.32,51.32,0,0,1-.47-6.17c0-1.06.21-2.07.31-3.09l.37-3.05V38.8c1.09-3.52,2.21-7,3.35-10.54v0l0,0,2.25-4a3.43,3.43,0,0,1,.85-1,12,12,0,0,1,1-.66c.68-.4,1.39-.75,2.09-1.07l1-.48a2.67,2.67,0,0,1,.67-.23,1.48,1.48,0,0,1,.88.13,7.48,7.48,0,0,1,1,.72,2.58,2.58,0,0,0,.86.38,5.93,5.93,0,0,0,4-.89,22.43,22.43,0,0,1,8.85-2.95,11.86,11.86,0,0,1,4.73.55,7.22,7.22,0,0,1,3.83,2.92l.07.11v.11a14.58,14.58,0,0,0,2.15,7.65,10.24,10.24,0,0,0,2.82,2.8,13.63,13.63,0,0,0,3.67,1.67l.11,0,0,.1a19,19,0,0,1,.68,2.63c.18.88.32,1.77.45,2.66.26,1.78.44,3.57.58,5.36-.22-1.78-.5-3.56-.81-5.32-.16-.88-.33-1.76-.54-2.63a18.68,18.68,0,0,0-.76-2.55l.14.13a13.38,13.38,0,0,1-3.88-1.59,10.88,10.88,0,0,1-3.07-2.9,15.35,15.35,0,0,1-2.48-8l.07.22a6.52,6.52,0,0,0-3.39-2.49,10.89,10.89,0,0,0-4.34-.47A21.44,21.44,0,0,0,346.5,22a6.85,6.85,0,0,1-4.77,1,3.69,3.69,0,0,1-1.23-.55,9.28,9.28,0,0,0-.85-.64.38.38,0,0,0-.24,0,1.76,1.76,0,0,0-.41.15l-1,.47c-.69.31-1.37.64-2,1-.31.18-.65.39-.91.58a2.4,2.4,0,0,0-.6.73l-2.28,4,0-.09c-1.15,3.5-2.31,7-3.51,10.48l0-.07-.45,3c-.13,1-.34,2-.39,3-.11,2,.19,4,.28,6.11v0h0l-.36,7v0Z"/><path class="cls-1" d="M381.09,47.28l.9,0h.09l0,.1a7,7,0,0,0-.1,1.31c0,.42.1.89.37,1a.61.61,0,0,0,.22.08,2.46,2.46,0,0,1,.36.07,3,3,0,0,1,.67.27,3.72,3.72,0,0,1,1.11.92l.06.08v.11a8.6,8.6,0,0,1-.36,2,1.76,1.76,0,0,1-.62,1,.69.69,0,0,1-.37.11,1,1,0,0,1-.32-.06,1.92,1.92,0,0,1-.49-.28,11.26,11.26,0,0,0-1.52-1.21c-.28-.15-.5,0-.72.25s-.44.5-.67.74c.17-.28.35-.56.54-.84a1.05,1.05,0,0,1,.37-.4.69.69,0,0,1,.58,0,10.52,10.52,0,0,1,1.69,1.1c.25.17.56.29.64.18a1.51,1.51,0,0,0,.38-.71,10.06,10.06,0,0,0,.33-1.89l.05.18a3.68,3.68,0,0,0-.92-.81,2.56,2.56,0,0,0-.56-.26l-.29-.08a1,1,0,0,1-.39-.18,1.6,1.6,0,0,1-.44-1.4,5.28,5.28,0,0,1,.27-1.34l.07.09Z"/><path class="cls-1" d="M385.19,47.4c-.26-.83-.45-1.67-.72-2.49a9.32,9.32,0,0,0-.42-1.2,2.42,2.42,0,0,0-.3-.55.56.56,0,0,0-.52-.28.63.63,0,0,1,.62.19,2.49,2.49,0,0,1,.39.54,7,7,0,0,1,.5,1.22A11.21,11.21,0,0,1,385.19,47.4Z"/><path class="cls-1" d="M386.4,45.44a10.38,10.38,0,0,0-.48-1.84,2.16,2.16,0,0,0-1-1.29,2.32,2.32,0,0,0-1.65.18c-.57.25-1.1.6-1.68.91.21-.25.45-.47.68-.7s.53-.39.8-.59a2.41,2.41,0,0,1,2.05-.31,2.31,2.31,0,0,1,1.23,1.67A5,5,0,0,1,386.4,45.44Z"/><rect class="cls-9" x="371.14" y="32.4" width="1.11" height="18.12" transform="translate(315.45 411.2) rotate(-87.71)"/><path class="cls-10" d="M331.13,53.38a7.69,7.69,0,0,0,7.4-1.88,7,7,0,0,0,2.58-6.13c-.37.66-3.08,4.17-10.19,3.57C327.33,52,331.13,53.38,331.13,53.38Z"/><path class="cls-10" d="M355.74,49.71c4.33.13,8-5.8,5.08-8-1.37,1.17-2.9,4.32-10,1.88h0S349.23,49.51,355.74,49.71Z"/><path class="cls-2" d="M141.85,177.12"/><path class="cls-2" d="M140,202.53"/><path class="cls-1" d="M206.64,156.05c.69-.76,1.34-1.49,2-2.26.31-.38.61-.77.92-1.17s.59-.81.92-1.2a7.16,7.16,0,0,1-1.4,2.72,7.44,7.44,0,0,1-1.09,1.09A5.19,5.19,0,0,1,206.64,156.05Z"/><path class="cls-1" d="M143.89,182.75s14.48-2.83,18.32-3.42,7.67-1.13,11.52-1.6l5.78-.71c1.93-.2,3.86-.43,5.79-.6-1.9.41-3.81.75-5.71,1.13l-5.73,1c-3.82.68-7.65,1.27-11.49,1.86s-7.67,1.13-11.52,1.6S147.76,182.4,143.89,182.75Z"/><path class="cls-1" d="M377.52,153.47c-1.67-.62-3.32-1.27-5-2s-3.27-1.39-4.88-2.13l.36,0c-3.49,1-7,2-10.52,2.82h-.06c-2.11.2-4.22.43-6.35.56l.05,0c-.47.27-1,.53-1.44.78.43-.34.85-.68,1.29-1h.05c2.08-.46,4.17-.81,6.26-1.19h-.06c3.47-1.07,7-2,10.49-2.94l.19,0,.17.08c1.59.78,3.16,1.61,4.73,2.44S376,152.57,377.52,153.47Z"/><path class="cls-1" d="M361.46,154.58c-2.35,0-4.69-.09-7-.17s-4.67-.21-7-.32l-7-.34c-1.16-.05-2.33-.09-3.5-.1s-2.33,0-3.5.06a32,32,0,0,1,7-.82c2.35-.08,4.7,0,7,.09s4.68.3,7,.58S359.16,154.12,361.46,154.58Z"/><path class="cls-1" d="M346.28,157.58c-2.63-.61-5.24-1.26-7.84-2s-5.2-1.39-7.79-2.13l.11,0c-2.73-.2-5.46-.4-8.19-.65s-5.46-.48-8.18-.79h.05c-3.44.08-6.87.13-10.32.07,3.42-.38,6.85-.65,10.28-.9h.05c2.74.14,5.47.33,8.2.54s5.46.44,8.19.68h.11q3.86,1.19,7.69,2.47C341.2,155.77,343.75,156.65,346.28,157.58Z"/><path class="cls-1" d="M322.84,159.79c-1.82-.52-3.61-1.12-5.41-1.67l-5.37-1.79c-3.58-1.2-7.13-2.47-10.67-3.76l.1,0-6.24-1h.06c-2.51-.1-5-.26-7.53-.41s-5-.34-7.53-.57c2.52-.07,5-.12,7.55-.1s5,0,7.54.06h.06l6.25.95h.05l.05,0c3.54,1.29,7.08,2.6,10.59,4l5.26,2.08C319.36,158.33,321.11,159,322.84,159.79Z"/><path class="cls-1" d="M276.41,156.44c.25-1,.52-2,.85-3,.17-.49.34-1,.56-1.45a2.8,2.8,0,0,1,1-1.33.53.53,0,0,1,.56.08,1.15,1.15,0,0,1,.28.38,3.72,3.72,0,0,1,.27.77,13.22,13.22,0,0,1,.27,1.55c.12,1,.18,2.06.22,3.1v0c.24,1.77.54,3.53.94,5.27.2.87.41,1.73.67,2.58a21,21,0,0,0,.89,2.46l0,0v.05c.37,1.35.73,2.71,1.07,4.07s.65,2.73.93,4.1l.44,2.05c.13.69.22,1.39.34,2.08.22,1.39.41,2.78.58,4.17l-.11,0c-.39-1.35-.76-2.7-1.1-4.06s-.73-2.7-1.1-4-.76-2.69-1.1-4.05-.65-2.72-1-4.08l0,.09a21.55,21.55,0,0,1-.83-2.64c-.23-.88-.42-1.77-.59-2.66-.34-1.78-.59-3.57-.77-5.37v0h0c0-1,0-2-.11-3.06a12.78,12.78,0,0,0-.19-1.5,3.32,3.32,0,0,0-.2-.69c-.11-.22-.21-.34-.31-.28a2.7,2.7,0,0,0-.83,1.11c-.23.45-.43.92-.61,1.4-.37,1-.69,1.93-1,2.91Z"/><path class="cls-1" d="M279.71,155.51c-1.54.68-3.12,1.27-4.71,1.84-.8.28-1.61.52-2.43.75a11.68,11.68,0,0,1-2.58.45l.14,0c-.59.21-1.17.44-1.74.67s-1.16.48-1.67.74l.2-.66,1.81,3.24,0,.08,0,.1c.61,4,1.21,8,1.73,11.95v0c.5,2.29.93,4.6,1.4,6.9s.9,4.61,1.3,6.93c-.68-2.25-1.35-4.51-1.92-6.78s-1.2-4.54-1.74-6.83h0v0c-.66-4-1.24-8-1.81-11.93l.06.18-1.73-3.28-.24-.45.44-.21a16.5,16.5,0,0,1,1.81-.72c.6-.21,1.2-.4,1.81-.58l.07,0H270a11.2,11.2,0,0,0,2.4-.29c.81-.17,1.62-.38,2.44-.58C276.49,156.47,278.1,156,279.71,155.51Z"/><path class="cls-1" d="M397.7,97.92a129.9,129.9,0,0,0-14.07,6.64,78,78,0,0,0-12.9,8.58,32,32,0,0,0-5.28,5.56,17.26,17.26,0,0,0-1.88,3.27,14.61,14.61,0,0,0-.62,1.78l-.6,1.86-2.39,7.4q-.58,1.85-1.1,3.72a35.4,35.4,0,0,0-.88,3.71v0c-.62,3.7-1.29,7.4-2,11.09l-.11,0c.45-3.73.9-7.46,1.4-11.17v0a50,50,0,0,1,1.67-7.7c.68-2.52,1.47-5,2.28-7.47l.63-1.84a14.41,14.41,0,0,1,.7-1.89,18.3,18.3,0,0,1,2.08-3.42,34,34,0,0,1,5.56-5.6,77.36,77.36,0,0,1,13.19-8.39,130.2,130.2,0,0,1,14.28-6.29Z"/><path class="cls-1" d="M314.44,137.76c.48-1,1-2,1.51-3l.77-1.5c.27-.49.62-.93.91-1.41l3.65-5.63.11-.16.19-.06,6.68-2.2h0l6-1.42.14,0,.13,0,6.89,1.82h.05c.58.21,1.16.45,1.75.65s1.13.54,1.69.8c1.12.56,2.25,1.11,3.35,1.69-1.22-.28-2.43-.61-3.64-.93-.6-.17-1.22-.28-1.8-.51s-1.16-.44-1.75-.66l.05,0-6.89-1.82h.27l-6,1.42h0l-6.68,2.2.29-.23-3.65,5.63c-.32.46-.58,1-.92,1.4l-1.06,1.31C315.88,136,315.18,136.9,314.44,137.76Z"/><polygon class="cls-1" points="318.1 131.53 334.12 131.51 334.16 131.51 334.19 131.52 341.4 134.19 334.07 131.86 334.13 131.87 318.13 132.65 318.1 131.53"/><path class="cls-1" d="M275.54,186.43c-1.9,1.46-3.81,2.89-5.76,4.27l-2.91,2.08L264,195l.11-.11-2.9,4,.11-.31-.24,6.6,0,.53-.51,0-3.4-.16H257l-.1-.07-2.11-1.53-.12-.09,0-.12c-.49-2-1-3.94-1.39-5.92l.27-.08c.65,1.92,1.26,3.86,1.85,5.8l-.15-.21,2.2,1.4-.24-.08,3.4,0-.53.5.17-6.61v-.17l.1-.14,3-4,0-.07.06,0c1-.7,1.92-1.44,2.92-2.11l3-1.91C271.41,188.87,273.47,187.64,275.54,186.43Z"/><path class="cls-1" d="M255.32,181.6c-1.41,2-2.93,3.93-4.51,5.79s-3.2,3.69-4.87,5.46l.12-.4q.19,1.94.31,3.89l-.17-.25c1,.62,2,1.26,3,1.94-1.12-.42-2.22-.88-3.31-1.36l-.14-.06,0-.19q-.37-1.92-.66-3.85l0-.21.16-.18q2.36-2.8,4.88-5.45C251.75,185,253.49,183.23,255.32,181.6Z"/><path class="cls-1" d="M259.4,185.93A50.91,50.91,0,0,1,257,192c-.9,2-1.87,3.91-2.94,5.8l-.16-.54a26.88,26.88,0,0,1,2.54,2,26.88,26.88,0,0,1-3-1.28l-.32-.16.16-.38c.82-2,1.74-4,2.73-5.9A50.91,50.91,0,0,1,259.4,185.93Z"/><path class="cls-1" d="M246.39,196.56c.37,1.23.72,2.45,1.12,3.63.21.59.43,1.16.69,1.7a3.47,3.47,0,0,0,.94,1.28l0,0,0,0c.84.72,1.66,1.46,2.46,2.23l-.23-.09q.89.15,1.78.35h0c.47,0,.93.1,1.4.15l-.28.16c.43-.67.87-1.34,1.36-2-.24.77-.53,1.52-.83,2.26l-.06.15h-.22c-.47,0-.94.06-1.4.07h0q-.91-.06-1.81-.17h-.13l-.1-.08c-.89-.72-1.76-1.47-2.61-2.24l.07.06a3.87,3.87,0,0,1-1.26-1.78,11,11,0,0,1-.56-1.9A16.41,16.41,0,0,1,246.39,196.56Z"/><path class="cls-1" d="M247.91,202.48a9.32,9.32,0,0,1-.13,1.88,5.63,5.63,0,0,1-.23.94,2,2,0,0,1-.6.91l0,0-.1,0a5.89,5.89,0,0,1-2.08.08,2.91,2.91,0,0,1-1.08-.38,2.32,2.32,0,0,1-.48-.39c-.12-.14-.24-.27-.34-.41-.42-.53-.78-1.08-1.15-1.63s-.72-1.1-1.05-1.66l0-.07,0-.07c-.5-2-.94-3.92-1.32-5.91v-.1c.06-.62.12-1.23.21-1.85s.15-1.23.25-1.85c.07.62.1,1.24.14,1.86s.07,1.24.09,1.86v-.1c.63,1.92,1.21,3.85,1.72,5.81l-.06-.15c.69,1.09,1.37,2.21,2.09,3.24l.27.36a1.32,1.32,0,0,0,.26.24,2.38,2.38,0,0,0,.73.32,5.92,5.92,0,0,0,1.81.11l-.15.06a1.41,1.41,0,0,0,.48-.57,5.57,5.57,0,0,0,.37-.81A16.44,16.44,0,0,0,247.91,202.48Z"/><path class="cls-1" d="M248.86,172a30.75,30.75,0,0,1-.36,3.51,17.18,17.18,0,0,1-.38,1.74,6.82,6.82,0,0,1-.3.88,2.12,2.12,0,0,1-.64.92l.13-.12c-1.14,1.5-2.31,3-3.5,4.45s-2.41,2.91-3.65,4.33l0-.07a6,6,0,0,0-.6,1.47,3.77,3.77,0,0,0-.12,1.56,2.3,2.3,0,0,0,.72,1.37,4.59,4.59,0,0,0,1.43.87,3.88,3.88,0,0,1-1.64-.63,2.66,2.66,0,0,1-1.08-1.48,4.29,4.29,0,0,1-.07-1.85,6.75,6.75,0,0,1,.56-1.76v0l0-.05c1.13-1.5,2.3-3,3.48-4.43s2.39-2.89,3.63-4.31l.06-.07.06,0a1.54,1.54,0,0,0,.36-.5,6,6,0,0,0,.33-.76c.2-.53.38-1.08.54-1.63C248.28,174.25,248.55,173.12,248.86,172Z"/><path class="cls-1" d="M239.31,191a12.36,12.36,0,0,1-.13,2.38,6,6,0,0,1-.78,2.35,2.68,2.68,0,0,1-1,.9,4.23,4.23,0,0,1-1.22.47,2.87,2.87,0,0,1-2.62-.76l-.1-.11,0-.12a6.52,6.52,0,0,1-.18-2.07,11.6,11.6,0,0,1,.28-2v.16c0-.67-.09-1.34-.12-2v-.13l0-.09q1-2.49,2.18-4.93l0,.07c.21-1,.39-2,.64-3,0,1-.06,2.05-.08,3.08v0l0,.05q-.82,2.57-1.75,5.1l0-.22c.07.67.12,1.34.17,2v.06l0,.1a8.89,8.89,0,0,0-.13,3.51l-.14-.23a1.88,1.88,0,0,0,1.71.58,3,3,0,0,0,1.79-.87,6.41,6.41,0,0,0,1-2A19.89,19.89,0,0,0,239.31,191Z"/><path class="cls-3" d="M385.26,203.26c7.48-8.78,26.38-30.23,26.38-30.23l23.3-27.72s15.2-17.08-15.44-24.48c-9.39,27.3-15.06,39.68-15.06,39.68s-14.6,31.67-18.1,34c-1.95,3-21.24,7.51-29.37,4.1a59.89,59.89,0,0,1-1.95,10H383A30.14,30.14,0,0,1,385.26,203.26Z"/><path class="cls-1" d="M261.86,142.28c-4.19,1.12-8.34,2.63-12.69,2.72a34.24,34.24,0,0,1-4-.26,102.31,102.31,0,0,0-16.15-.29c-3.34.2-7,2-8.68,5.17-2.33,4.38,2.23,8.44,5.47,10.72,1.41,1,10.71,9.38,11.51,7.48,1.14-2.71,4.69-4.82,7.57-5.37,4.39-.84,8.4-5.63,12.8-6.41,2.78-.49,4.86-6.66,10.6-10.89.85-.63,1.64-7.3.59-6.71C266.49,139.77,261.73,142.32,261.86,142.28Z"/><path class="cls-1" d="M261.86,142.28c2-1.12,4-2.26,6-3.41,1-.58,2-1.16,3-1.76.49-.3,1-.61,1.45-.93a5.42,5.42,0,0,0,1.27-1c2.27-3.95,4.16-8.19,6.77-12a12.63,12.63,0,0,1,1.1-1.4,3.59,3.59,0,0,1,.73-.63,2.16,2.16,0,0,1,.26-.12l.15-.06a2.45,2.45,0,0,0,.31-.2,23.46,23.46,0,0,0,2.45-2.33c1.57-1.66,3.09-3.39,4.59-5.13q4.51-5.22,8.86-10.58l0,0,0,0,15.37-14.11.07-.06.09,0,10.77-4.51.63-.26.08.68.37,3.15,0,.34-.3.16L320,91.21l.09-.06c-6.54,5.85-13.15,11.61-19.72,17.42l-5,4.33c-.83.71-1.64,1.46-2.49,2.14l-2.59,2L280,125.19l10.18-8.33,2.55-2.08c.84-.71,1.62-1.48,2.43-2.21l4.85-4.45c6.49-5.9,12.94-11.84,19.46-17.69l0,0,0,0,5.92-3.31-.26.5-.39-3.15.71.41-10.74,4.57.16-.1-15.42,14,.05-.05c-2.93,3.56-5.9,7.08-8.94,10.55-1.53,1.72-3.08,3.43-4.7,5.09a23.9,23.9,0,0,1-2.6,2.37,3.12,3.12,0,0,1-.42.26l-.38.16a3,3,0,0,0-.58.49,12,12,0,0,0-1.05,1.3c-2.62,3.74-4.56,7.93-7,11.88a5.62,5.62,0,0,1-1.41,1.11c-.49.31-1,.61-1.48.9-1,.58-2,1.14-3,1.69C266,140.17,263.91,141.23,261.86,142.28Z"/><path class="cls-1" d="M275.47,153.26l5.63-7.17h0l3.74-5.92v0h0l4.09-3.61,0,0h0l6.07-2.57h0l17.05-9.12c2.88-1.46,5.62-3.15,8.39-4.8l8.3-4.94c5.5-3.35,10.72-7.17,16.23-10.52l16.79-9.65-.23.63-1.39-3.95-.26-.73.77,0,7.51.22-.46.23a21.77,21.77,0,0,1,2.77-3.07,19.64,19.64,0,0,1,3.31-2.48,13.79,13.79,0,0,1,3.88-1.55,10.91,10.91,0,0,1,4.21-.11l-.62.65c-.7-3.33-1.3-6.66-1.88-10l.5.44-1.4,0h0A35.52,35.52,0,0,0,372,76.53c-1.08.31-2.15.67-3.22,1s-2.13.76-3.17,1.19a101.47,101.47,0,0,0-12.23,5.88c-4,2.17-7.79,4.63-11.58,7.13l-5.56,3.92-5.43,4.11,0,0c-6.2,5.6-12.39,11.21-18.65,16.75l-18.8,16.58,18.5-16.91,18.45-17h0L335.76,95l5.55-4c3.78-2.55,7.6-5.06,11.6-7.25a102.43,102.43,0,0,1,12.32-6c1.06-.44,2.14-.81,3.21-1.21s2.17-.74,3.27-1.05a36.17,36.17,0,0,1,6.79-1.42h0l1.4,0h.43l.08.42c.6,3.32,1.2,6.66,1.91,9.95l.17.78-.79-.13a9.81,9.81,0,0,0-3.78.12,12.68,12.68,0,0,0-3.56,1.44,18.55,18.55,0,0,0-3.13,2.33A20.8,20.8,0,0,0,368.63,92l-.18.24h-.28l-7.5-.24.52-.71,1.37,4,.14.41-.38.22-16.79,9.58c-5.53,3.31-10.73,7.15-16.28,10.44l-8.37,4.87c-2.79,1.62-5.56,3.29-8.45,4.73l-17.17,8.93h0l-6.11,2.46.05,0L285,140.36l0,0-3.84,5.86h0Z"/><path class="cls-1" d="M195.95,143.3c-1.7,1.39-3.44,2.72-5.16,4.07l.1-.12-1.31,3.38c-.5,1.1-1,2.19-1.54,3.28l0-.07c-1.27,4.24-2.57,8.48-3.93,12.7v-.27l1,5-.47-.4,2,.09-.37.16a19.91,19.91,0,0,0,1.77-2.26,7.58,7.58,0,0,0,1.16-2.53,2.2,2.2,0,0,0-.11-1.29,2.93,2.93,0,0,1-.08-1.59,5,5,0,0,1,1.62-2.55l0,.14-1-2.16,1.19,2,0,.07-.07.07a4.65,4.65,0,0,0-1.3,2.46,2.64,2.64,0,0,0,.16,1.31,2.88,2.88,0,0,1,.21,1.59,8.24,8.24,0,0,1-1.13,2.86,18.63,18.63,0,0,1-1.75,2.47l-.14.16h-.23l-2,0h-.39l-.09-.39-1.09-5,0-.14,0-.14c1.31-4.23,2.68-8.45,4.07-12.65v-.07c.56-1.06,1.14-2.11,1.69-3.17l1.47-3.28,0-.08.06,0C192.28,145.7,194.09,144.47,195.95,143.3Z"/><path class="cls-1" d="M197.66,151.13a6,6,0,0,1-.28,1.55,6.26,6.26,0,0,1-.62,1.39,6.1,6.1,0,0,1-2.12,2.11l.06-.06-4.12,4.57,3.68-4.94,0,0,0,0a5.4,5.4,0,0,0,2.11-3.27,5,5,0,0,0,.11-1.26Z"/><path class="cls-1" d="M201.08,149.87a16.42,16.42,0,0,1,.37,2.68,8.26,8.26,0,0,1,0,1.38,1.91,1.91,0,0,1-.69,1.41l.14-.14a19.68,19.68,0,0,0-1.06,3.92,14.24,14.24,0,0,0-.21,4,3.43,3.43,0,0,0,1.8,2.93,1.61,1.61,0,0,0,1.5,0,1.73,1.73,0,0,0,.83-1.3v-.07c.24-.92.52-1.84.84-2.74s.65-1.79,1.06-2.69l0,.06c.26-1,.57-2,.86-3v0c.05-.64.12-1.29.2-1.93,0,.65.07,1.29.08,1.94h0v0c-.18,1-.32,2.06-.53,3.09h0l0,0a49,49,0,0,0-1.51,5.42v-.07a2.73,2.73,0,0,1-1.28,2.11,2.69,2.69,0,0,1-2.5.07,6,6,0,0,1-1-.65,3.72,3.72,0,0,1-.74-1,5.74,5.74,0,0,1-.66-2.19,13.81,13.81,0,0,1,.36-4.29,19.69,19.69,0,0,1,1.41-4l0-.1.09,0a1.55,1.55,0,0,0,.47-.94,7.82,7.82,0,0,0,.18-1.29A25.65,25.65,0,0,0,201.08,149.87Z"/><path class="cls-1" d="M196.52,152.76a6.43,6.43,0,0,0,1.71,1.44c.63.39,1.31.69,2,1.06a3.83,3.83,0,0,1-1.19-.12,4,4,0,0,1-1.12-.47,3.46,3.46,0,0,1-.92-.81A2.22,2.22,0,0,1,196.52,152.76Z"/><path class="cls-9" d="M327.37,53.39c-.47,0-.92,0-1.37-.05h0c-1.31-.51-1-6.51-1-7.19V46l.1,0c1.42-.33,13.94-3.18,15.13-2.59,2.52,1.74-.29,6.57-.41,6.78l0,0-1.58,1.4A45.4,45.4,0,0,1,327.37,53.39ZM326,53.06c4.81.38,11.51-1.55,12-1.7L339.55,50c.19-.32,2.72-4.84.5-6.38-.81-.39-9.28,1.33-14.83,2.6C325.11,48.74,325.23,52.69,326,53.06Z"/><path class="cls-9" d="M349.29,49c-4.1-.63-3.76-6.47-3.76-6.53v-.11l.1,0,16.71-3.47,0,.13s.28,1.08,1.09,6.7c0,1-1.53,1.52-2.27,1.75l-.32.11A93.37,93.37,0,0,1,349.29,49Zm-3.48-6.41c0,.78,0,5.58,3.5,6.13a97.25,97.25,0,0,0,11.47-1.41l.35-.12c.67-.21,2.08-.65,2.08-1.47-.66-4.56-1-6.11-1-6.52Z"/><path class="cls-1" d="M381.55,40.58c1.89-.49,4.29-.33,5.3,1.62,1.08,1.79.39,4.05-.19,5.91a6.06,6.06,0,0,0-.38,2c0,.72,0,1.43,0,2.15a8.76,8.76,0,0,1-.64,3,3.33,3.33,0,0,1-.92,1.25c-.39.32-.79.63-1.2.93a21,21,0,0,1-2.59,1.63l-2.43.45,2.4-.54a28.15,28.15,0,0,0,2.52-1.67,5.36,5.36,0,0,0,2-2.13c.69-1.9.41-3.71.64-5.67a34.14,34.14,0,0,1,.9-3.59,5.14,5.14,0,0,0-.24-3.61,3.79,3.79,0,0,0-2.28-1.75A5.55,5.55,0,0,0,381.55,40.58Z"/><path class="cls-1" d="M381.23,58.85c-.35,2.66-.84,5.28-1.29,7.91l-.7,3.94c-.12.66-.21,1.31-.3,2a6.16,6.16,0,0,0-.05,2,10.78,10.78,0,0,1-.07-4c.13-1.34.34-2.66.57-4A71.19,71.19,0,0,1,381.23,58.85Z"/><path class="cls-1" d="M339.53,45.32a25.86,25.86,0,0,0-5,1.3,13.69,13.69,0,0,0-2.28,1.15,9.61,9.61,0,0,0-1.9,1.73A6.23,6.23,0,0,1,332,47.43a9.31,9.31,0,0,1,2.33-1.33,12,12,0,0,1,2.58-.67A11.12,11.12,0,0,1,339.53,45.32Z"/><path class="cls-1" d="M360.83,41.69a11.23,11.23,0,0,0-2.52-.13,16.28,16.28,0,0,0-2.46.44,29.8,29.8,0,0,0-4.74,1.79,11.22,11.22,0,0,1,2.18-1.39,12.76,12.76,0,0,1,2.43-.93,10.18,10.18,0,0,1,2.59-.33A6.72,6.72,0,0,1,360.83,41.69Z"/><ellipse class="cls-1" cx="336.41" cy="46.92" rx="1.59" ry="1.13" transform="translate(-0.33 91.41) rotate(-15.47)"/><ellipse class="cls-1" cx="357.08" cy="42.64" rx="1.59" ry="1.13" transform="translate(-1.65 17.41) rotate(-2.79)"/><path class="cls-1" d="M351.61,43.84a16.72,16.72,0,0,0,2.48.27,12.13,12.13,0,0,0,2.47-.14,8.25,8.25,0,0,0,2.34-.74,6.83,6.83,0,0,0,1.93-1.54A5.74,5.74,0,0,1,359,43.42a7.81,7.81,0,0,1-2.4.82A11.28,11.28,0,0,1,351.61,43.84Z"/><path class="cls-1" d="M331.27,49a26.72,26.72,0,0,0,4.65-.47,8,8,0,0,0,2.17-.76A2.61,2.61,0,0,0,339.51,46a2.51,2.51,0,0,1-1.3,1.91,7.52,7.52,0,0,1-2.23.85A15.74,15.74,0,0,1,331.27,49Z"/><polygon class="cls-9" points="324.55 46.55 327.52 46.02 327.42 48.97 324.49 48.25 324.55 46.55"/><path class="cls-1" d="M188.08,171a5.46,5.46,0,0,1,.63,1.83,3.28,3.28,0,0,1-.32,1.94,4.13,4.13,0,0,1-1.33,1.48,6.37,6.37,0,0,1-1.79.88l.19-.31.08.29-.52.13-2.14-8.14c-.71-2.71-1.36-5.44-2-8.16l-.05-.2.12-.19a52.57,52.57,0,0,0,3.13-5.83c1-2,1.83-4,2.61-6.1l0-.11.08-.08,4.08-4,4.14-3.95q4.12-4,8.36-7.81-3.88,4.21-7.86,8.31l-4,4.11-4,4.06.12-.19a59.63,59.63,0,0,1-5.83,12.15l.07-.39c.63,2.73,1.29,5.45,1.89,8.19l1.8,8.21-.52.13-.06-.29-.05-.25.24-.06a4.83,4.83,0,0,0,3-2,3.11,3.11,0,0,0,.4-1.79A5.38,5.38,0,0,0,188.08,171Z"/><path class="cls-1" d="M188.15,168.57a7.27,7.27,0,0,1,1.77,1.18,6.3,6.3,0,0,1,1.38,1.67,4.34,4.34,0,0,1,.53,2.15,4.5,4.5,0,0,1-.65,2.11l-.05.1H191c-.57.07-1.12.19-1.71.26a.85.85,0,0,1-.87-.3,3,3,0,0,1-.33-.81,4.26,4.26,0,0,0,.46.71c.18.21.43.16.7.11.54-.12,1.1-.3,1.66-.42l-.16.12a4.53,4.53,0,0,0,.51-1.89,4.3,4.3,0,0,0-.44-1.9,7.48,7.48,0,0,0-1.16-1.67A12.62,12.62,0,0,0,188.15,168.57Z"/><path class="cls-1" d="M190.28,170.6a21.65,21.65,0,0,0,.57-2.27,2,2,0,0,0-.07-1,1.65,1.65,0,0,0-.78-.74,1.32,1.32,0,0,1,1.16.53,1.81,1.81,0,0,1,.25,1.31A4.05,4.05,0,0,1,190.28,170.6Z"/><path class="cls-1" d="M118.79,206.88c-.45.56-.87,1.13-1.32,1.69h.11C118,208,118.39,207.45,118.79,206.88Z"/><path class="cls-1" d="M362.19,200a124,124,0,0,0,12.51-1.41,50.34,50.34,0,0,0,6.11-1.39,21.19,21.19,0,0,0,2.9-1.1,6.12,6.12,0,0,0,2.36-1.78v0a56.91,56.91,0,0,0,7.35-11c1.05-2,1.92-4,2.84-6l2.76-6.1,11.09-24.37,0,0,8.14-22.17v0a33.64,33.64,0,0,0,1-6,31.78,31.78,0,0,0-.16-6.11,23.29,23.29,0,0,0-1.63-5.85,17.32,17.32,0,0,0-3.44-4.95l.08.06-15.89-8.63,0,0,0,0-3.67-3.16.06,0-13.8-5.41,13.94,5h0l0,0,3.75,3.07,0,0,16,8.39,0,0,0,0a18.16,18.16,0,0,1,3.7,5.16,22.87,22.87,0,0,1,1.76,6.09,32.74,32.74,0,0,1,.19,6.31,34.52,34.52,0,0,1-1,6.25h0v0l-8.06,22.2v0L399.93,171.5l-2.81,6.07c-.94,2-1.86,4.07-3,6a57.58,57.58,0,0,1-7.61,11.08l0,0a6.64,6.64,0,0,1-2.63,2,20.17,20.17,0,0,1-3,1.07,50.75,50.75,0,0,1-6.2,1.26A110.53,110.53,0,0,1,362.19,200Z"/><polygon class="cls-1" points="211.88 206.67 211.33 206.63 211.3 207.21 211.88 206.67"/><path class="cls-1" d="M207.3,207.79H207l.45-.14-.18.14h5.12v-8.45l-.08.1.08-.2v.11c1.76-2,3.47-4.13,5.21-6.19-1.92,2-3.87,3.89-5.76,5.86l-.07.08v.13l-.46,7.42.54,0-.58.54,0-.58-4.26-.26h-.23l-.22.16-2.69,1.89.09,0-.2.11.11-.08-.45.16h2.84Z"/><path class="cls-1" d="M204,208.37l-.09,0-.11.08Z"/><path class="cls-1" d="M212.34,199.44l.08-.1v-.11Z"/><polygon class="cls-1" points="207.03 207.79 207.3 207.79 207.48 207.65 207.03 207.79"/><path class="cls-1" d="M232.07,204.57a42.47,42.47,0,0,0-5-1,16.93,16.93,0,0,1-2.21-.37,2.5,2.5,0,0,1-1.25-.66,1.15,1.15,0,0,1-.18-1,9.85,9.85,0,0,1,.65-2q.88-2.24,1.89-4.44a90.52,90.52,0,0,1,4.49-8.54q1.24-2.07,2.58-4.08c.89-1.29,1.89-2.77,2.73-4.12,1.72-2.7,3.56-5.24,6-6.27a19.61,19.61,0,0,1,2.2-.7,7,7,0,0,0,1.47-.64,5.46,5.46,0,0,0,1.34-1.13c.7-.82,1.06-1.51,1.5-2a9,9,0,0,1,1.52-1.43c2.29-1.77,5.42-2.76,8.48-4.38,3-1.89,5.28-4.29,7.86-6.14a11.66,11.66,0,0,1,4.1-2.12,7.36,7.36,0,0,1,4.55,1,7.83,7.83,0,0,0-4.64-2,12.78,12.78,0,0,0-5,1.52c-3.06,1.51-5.71,3.56-8.51,4.74-1.38.67-2.81,1.4-4.35,2.08a24.34,24.34,0,0,0-4.57,2.62,12.29,12.29,0,0,0-2,1.94c-.65.75-1.08,1.53-1.46,1.94a2.08,2.08,0,0,1-.53.46,3.8,3.8,0,0,1-.78.33,21.08,21.08,0,0,0-2.48.8,12.57,12.57,0,0,0-4.49,3.36,33.14,33.14,0,0,0-3,4.18c-.9,1.43-1.73,2.66-2.7,4.07s-1.82,2.8-2.68,4.23a93.92,93.92,0,0,0-4.66,8.86q-1,2.28-2,4.61a12.59,12.59,0,0,0-.84,2.69,5.08,5.08,0,0,0,0,1.82,4.17,4.17,0,0,0,.87,1.82,5.68,5.68,0,0,0,2.94,1.75,19.43,19.43,0,0,0,2.64.46,39.2,39.2,0,0,1,4.62.89,21.35,21.35,0,0,1,2.35.77h6.82A24.42,24.42,0,0,0,232.07,204.57Z"/><path class="cls-11" d="M288.9,207.86l.16.71H362c-10-4.79-22.79-10.37-31.37-12C316.91,193.9,288.19,185.13,288.9,207.86Z"/><path class="cls-12" d="M288.9,207.86c-.7-22.73,28-14,41.69-11.33,8.58,1.67,21.37,7.24,31.37,12h17.66L372,203.91c-97.06-41.41-90-2-91.61,4.66h8.64Z"/><path class="cls-1" d="M238,184.48a3.71,3.71,0,0,1-1.79-1.32,2.14,2.14,0,0,1-.39-1.75,4.37,4.37,0,0,1,.66-1.94,12,12,0,0,1,1.23-1.59v0l0,0q4-2.91,8.09-5.72l-.12.11,3.19-4,.07-.09.11-.06c.92-.48,1.86-.91,2.77-1.42l2.75-1.48c.92-.5,1.87-.93,2.81-1.37l2.83-1.34,0,0h0c1.23-.32,2.47-.63,3.71-.92s2.48-.6,3.73-.86c-1.2.44-2.41.84-3.62,1.25s-2.42.81-3.63,1.19l.06,0-2.74,1.49c-.91.51-1.84,1-2.74,1.49l-2.71,1.55c-.9.52-1.85,1-2.77,1.46l.18-.15-3.2,4-.05.06-.07,0q-4.1,2.75-8.28,5.39l0,0a11.39,11.39,0,0,0-1.24,1.42,4.16,4.16,0,0,0-.74,1.67,2.35,2.35,0,0,0,.41,1.73A3.88,3.88,0,0,0,238,184.48Z"/><path class="cls-4" d="M221.75,151.58c-4.3,3.26-8.7,6.35-13.11,9.44l-1.77,1.24.9-2a21.41,21.41,0,0,0,1.72-8.61,26.93,26.93,0,0,0-1.57-8.71l0,0h0l-1.24-4.92c-.45-1.53-1-3.3-2.2-3.72s-2.85.71-4.08,1.71a46.74,46.74,0,0,0-3.7,3.41l0,0h0c-.55.45-1.09.9-1.61,1.38a6.13,6.13,0,0,0-1.39,1.58,6,6,0,0,1,1.22-1.75c.48-.53,1-1,1.5-1.53l0,0a32.83,32.83,0,0,1,3.5-3.76,13.08,13.08,0,0,1,2.11-1.58,3.82,3.82,0,0,1,2.81-.56,3.63,3.63,0,0,1,2.17,2,14.12,14.12,0,0,1,1,2.48l1.33,4.91,0-.06a27.85,27.85,0,0,1,1.29,4.52,23.71,23.71,0,0,1,.38,4.69,23.47,23.47,0,0,1-.53,4.67,18.29,18.29,0,0,1-1.52,4.49L208,160C212.52,157.14,217.08,154.28,221.75,151.58Z"/><rect x="1.57" y="118.48" width="12.14" height="90.09"/><path d="M209,85.13,62,83.77,63.23,0l147,1.36ZM65.84,80.79l139.38,1.29,1.15-77.74L67,3Z"/></g></g></svg>